<svg width="96" height="96" viewBox="0 0 128 128" xmlns="http://www.w3.org/2000/svg">
  <defs>
    <linearGradient id="bg" x1="0%" y1="0%" x2="100%" y2="100%">
      <stop offset="0%" style="stop-color:#3178c6;stop-opacity:1" />
      <stop offset="100%" style="stop-color:#58cc02;stop-opacity:1" />
    </linearGradient>
    <linearGradient id="tsBlue" x1="0%" y1="0%" x2="100%" y2="100%">
      <stop offset="0%" style="stop-color:#3178c6;stop-opacity:1" />
      <stop offset="100%" style="stop-color:#235a97;stop-opacity:1" />
    </linearGradient>
    <linearGradient id="duoGreen" x1="0%" y1="0%" x2="100%" y2="100%">
      <stop offset="0%" style="stop-color:#58cc02;stop-opacity:1" />
      <stop offset="100%" style="stop-color:#46a302;stop-opacity:1" />
    </linearGradient>
  </defs>
  <circle cx="64" cy="64" r="60" fill="url(#bg)" opacity="0.1" />
  <circle cx="64" cy="64" r="58" fill="none" stroke="url(#bg)" stroke-width="2" />
  <g transform="translate(64, 35)">
    <rect x="-25" y="-18" width="50" height="36" rx="4" fill="url(#tsBlue)" />
    <text x="0" y="5" font-family="Arial" font-size="20" font-weight="bold" fill="white" text-anchor="middle">TS</text>
    <rect x="-20" y="-13" width="40" height="2" fill="white" opacity="0.3" />
    <rect x="-20" y="11" width="40" height="2" fill="white" opacity="0.3" />
  </g>
  <g transform="translate(64, 64)">
    <path d="M 0 -8 L 0 8" stroke="#ff9600" stroke-width="3" fill="none" />
    <polygon points="-4,4 0,10 4,4" fill="#ff9600" />
    <circle cx="0" cy="0" r="2" fill="#ff9600" />
  </g>
  <g transform="translate(64, 90)">
    <ellipse cx="0" cy="0" rx="28" ry="22" fill="url(#duoGreen)" />
    <ellipse cx="-10" cy="-5" rx="8" ry="10" fill="white" />
    <ellipse cx="10" cy="-5" rx="8" ry="10" fill="white" />
    <circle cx="-10" cy="-5" r="5" fill="#1cb0f6" />
    <circle cx="10" cy="-5" r="5" fill="#1cb0f6" />
    <circle cx="-10" cy="-5" r="2" fill="white" />
    <circle cx="10" cy="-5" r="2" fill="white" />
    <path d="M 0 2 L -6 8 L 0 12 L 6 8 Z" fill="#ff9600" />
    <ellipse cx="0" cy="8" rx="15" ry="8" fill="#46a302" opacity="0.5" />
  </g>
  <circle cx="20" cy="20" r="3" fill="#3178c6" opacity="0.3" />
  <circle cx="108" cy="20" r="3" fill="#58cc02" opacity="0.3" />
  <circle cx="20" cy="108" r="3" fill="#58cc02" opacity="0.3" />
  <circle cx="108" cy="108" r="3" fill="#3178c6" opacity="0.3" />
  <g transform="translate(64, 64)">
    <circle cx="0" cy="0" r="35" fill="none" stroke="white" stroke-width="1" stroke-dasharray="2,3" opacity="0.3" />
  </g>
</svg>
