<svg width="128" height="128" viewBox="0 0 128 128" xmlns="http://www.w3.org/2000/svg">
  <!-- Background gradient -->
  <defs>
    <linearGradient id="bg" x1="0%" y1="0%" x2="100%" y2="100%">
      <stop offset="0%" style="stop-color:#667eea;stop-opacity:1" />
      <stop offset="100%" style="stop-color:#764ba2;stop-opacity:1" />
    </linearGradient>
    <linearGradient id="green" x1="0%" y1="0%" x2="100%" y2="100%">
      <stop offset="0%" style="stop-color:#58cc02;stop-opacity:1" />
      <stop offset="100%" style="stop-color:#46a302;stop-opacity:1" />
    </linearGradient>
  </defs>
  
  <!-- Background circle -->
  <circle cx="64" cy="64" r="60" fill="url(#bg)" />
  
  <!-- Duolingo owl (simplified) -->
  <circle cx="45" cy="45" r="18" fill="#58cc02" />
  <circle cx="83" cy="45" r="18" fill="#58cc02" />
  <ellipse cx="64" cy="65" rx="25" ry="20" fill="#58cc02" />
  
  <!-- Owl eyes -->
  <circle cx="45" cy="45" r="8" fill="white" />
  <circle cx="83" cy="45" r="8" fill="white" />
  <circle cx="45" cy="45" r="4" fill="#1cb0f6" />
  <circle cx="83" cy="45" r="4" fill="#1cb0f6" />
  
  <!-- Owl beak -->
  <path d="M 64 55 L 58 62 L 64 65 L 70 62 Z" fill="#ff9600" />
  
  <!-- Anki card symbol -->
  <rect x="44" y="75" width="40" height="30" rx="3" fill="white" opacity="0.9" />
  <rect x="48" y="79" width="32" height="2" fill="#667eea" />
  <rect x="48" y="84" width="24" height="2" fill="#667eea" />
  <rect x="48" y="89" width="28" height="2" fill="#667eea" />
  
  <!-- Connection arrow -->
  <path d="M 64 70 L 64 75" stroke="#ff9600" stroke-width="2" fill="none" />
  <polygon points="62,73 64,77 66,73" fill="#ff9600" />
</svg>
